# xmcd
#
# Track frame offsets:
#	150
#	5910
#	40133
#	78694
#	120141
#	171151
#	185909
#	216052
#
# Disc length: 2997 seconds
#
# Revision: 1
# Processed by: cddbd v1.5.2PL0 Copyright (c) Steve Scherf et al.
# Submitted via: audiograbber 1.83.01
#
DISCID=690bb308
DTITLE=Grateful Dead - 87-05-03 Frost Amphitheatre, Palo Alto CA
DYEAR=1900
DGENRE=
TTITLE0=Intro 2
TTITLE1=Iko Iko
TTITLE2=Feel Like A Stranger
TTITLE3=Ship Of Fools
TTITLE4=Estimated Prophet
TTITLE5=Drums
TTITLE6=Drums
TTITLE7=Drums
EXTD=
EXTT0=
EXTT1=
EXTT2=
EXTT3=
EXTT4=
EXTT5=
EXTT6=
EXTT7=
PLAYORDER=
